Coordinates
version=1
nRows=11
nColumns=40
inDegrees=yes

Units are S.I. units (second, meters, Newtons, ...)
If the header above contains a line with 'inDegrees', this indicates whether rotational values are in degrees (yes) or radians (no).

endheader
time	pelvis_tilt	pelvis_list	pelvis_rotation	pelvis_tx	pelvis_ty	pelvis_tz	hip_flexion_r	hip_adduction_r	hip_rotation_r	knee_angle_r	knee_angle_r_beta	ankle_angle_r	subtalar_angle_r	mtp_angle_r	hip_flexion_l	hip_adduction_l	hip_rotation_l	knee_angle_l	knee_angle_l_beta	ankle_angle_l	subtalar_angle_l	mtp_angle_l	lumbar_extension	lumbar_bending	lumbar_rotation	arm_flex_r	arm_add_r	arm_rot_r	elbow_flex_r	pro_sup_r	wrist_flex_r	wrist_dev_r	arm_flex_l	arm_add_l	arm_rot_l	elbow_flex_l	pro_sup_l	wrist_flex_l	wrist_dev_l
      4.20500000	     -6.36485981	     -0.55669341	      1.68759441	     -0.21235973	      1.30642308	     -0.94254026	      8.83280635	     -7.96016084	    -14.60870970	     12.62827599	      0.22040499	    -39.16264118	      0.00000000	      0.00000000	     12.17155437	    -10.13515828	     -9.70800708	     18.42306592	      0.32154316	    -36.12715692	      0.00000000	      0.00000000	    -11.28882907	     -0.79401650	     -5.92692658	    -19.02321705	    -42.97505625	     35.09832696	     88.59700389	     87.17576411	      0.00000000	      0.00000000	    -28.19263663	    -41.33853688	     25.72085835	     90.92522706	     87.34137460	      0.00000000	      0.00000000
      4.21000000	     -6.39690082	     -0.80651029	      1.86589967	     -0.21226821	      1.31497814	     -0.94286037	      8.56891335	     -7.59711525	    -14.26577523	     11.81888627	      0.20627848	    -39.15049696	      0.00000000	      0.00000000	     12.33556765	    -10.45870686	     -9.27518835	     18.42259422	      0.32153493	    -35.31395086	      0.00000000	      0.00000000	    -11.17185093	     -0.50901056	     -6.89547718	    -16.78365069	    -43.52771898	     37.86652972	     88.09085146	     87.11675010	      0.00000000	      0.00000000	    -28.69036171	    -40.69269532	     25.37623529	     90.21052399	     87.26505547	      0.00000000	      0.00000000
      4.21500000	     -6.58997488	     -0.85694153	      1.97995195	     -0.21209496	      1.32295787	     -0.94322399	      8.62100951	     -7.52732095	    -14.15745488	     11.25321849	      0.19640571	    -39.04876755	      0.00000000	      0.00000000	     12.54080373	    -10.54350367	     -8.87271489	     18.19684375	      0.31759484	    -34.61050231	      0.00000000	      0.00000000	    -10.92521710	     -0.41034594	     -7.13862333	    -16.56786455	    -43.39255060	     37.87620101	     87.82560867	     87.12914213	      0.00000000	      0.00000000	    -28.35999788	    -40.34295451	     25.66331125	     89.29980473	     87.26939550	      0.00000000	      0.00000000
      4.22000000	     -6.76437589	     -0.95614617	      2.08677718	     -0.21200627	      1.33072013	     -0.94356495	      8.59503156	     -7.38553835	    -13.97811600	     10.53741547	      0.18391259	    -38.89983599	      0.00000000	      0.00000000	     12.67363770	    -10.65350900	     -8.42316156	     17.78334467	      0.31037792	    -33.73019046	      0.00000000	      0.00000000	    -10.66863386	     -0.23743586	     -7.33347958	    -16.41927388	    -43.30782325	     37.84274531	     87.66265541	     87.14416321	      0.00000000	      0.00000000	    -27.90421050	    -40.08688452	     26.15168472	     88.42139836	     87.27281702	      0.00000000	      0.00000000
      4.22500000	     -6.96010802	     -1.09730607	      2.11484405	     -0.21188499	      1.33817097	     -0.94368635	      8.58037862	     -7.18433250	    -13.89555094	      9.74970700	      0.17016449	    -38.72197189	      0.00000000	      0.00000000	     12.76783538	    -10.83244034	     -8.14082951	     17.26896980	      0.30140038	    -32.90948859	      0.00000000	      0.00000000	    -10.38436386	     -0.06572652	     -7.43737873	    -16.37382850	    -43.17879399	     37.63265654	     87.52706995	     87.14936887	      0.00000000	      0.00000000	    -27.52255356	    -39.90015009	     26.62458168	     87.58650558	     87.27109973	      0.00000000	      0.00000000
      4.23000000	     -7.21275075	     -1.15663858	      2.15565291	     -0.21188017	      1.34527664	     -0.94388906	      8.60886234	     -7.08555163	    -13.88793090	      8.90753289	      0.15546578	    -38.45929182	      0.00000000	      0.00000000	     12.86521649	    -10.89217265	     -7.84318058	     16.55295166	      0.28890351	    -31.81558088	      0.00000000	      0.00000000	    -10.11353508	      0.02920560	     -7.59779830	    -16.42058176	    -43.01580231	     37.22963939	     87.42825129	     87.16171082	      0.00000000	      0.00000000	    -27.25446906	    -39.69796836	     26.98535082	     86.83137792	     87.23652449	      0.00000000	      0.00000000
      4.23500000	     -7.48491917	     -1.21855112	      2.08116406	     -0.21168153	      1.35202659	     -0.94403139	      8.73641658	     -7.01386821	    -14.09857572	      8.24617962	      0.14392299	    -38.06121536	      0.00000000	      0.00000000	     12.89838859	    -10.98643801	     -7.92349959	     15.75843504	      0.27503658	    -30.83953452	      0.00000000	      0.00000000	     -9.72326881	      0.11864175	     -7.59948879	    -16.50964082	    -42.89045630	     36.99348229	     87.32831250	     87.18050273	      0.00000000	      0.00000000	    -27.06202272	    -39.43095449	     27.08434016	     86.11265272	     87.22135943	      0.00000000	      0.00000000
      4.24000000	     -7.77322047	     -1.22873526	      2.03439678	     -0.21160513	      1.35855523	     -0.94409944	      8.86383678	     -6.98802033	    -14.27329440	      7.56338010	      0.13200589	    -37.57154530	      0.00000000	      0.00000000	     12.94979084	    -11.02559408	     -7.99400183	     14.93064103	      0.26058885	    -29.70054874	      0.00000000	      0.00000000	     -9.33707358	      0.14248176	     -7.59340178	    -16.64637862	    -42.72705627	     36.65801694	     87.22415980	     87.18733985	      0.00000000	      0.00000000	    -26.84023081	    -39.23792084	     27.20324314	     85.50055979	     87.21802982	      0.00000000	      0.00000000
      4.24500000	     -8.02178348	     -1.30395151	      1.93598689	     -0.21148390	      1.36476173	     -0.94428870	      8.99247096	     -6.91221916	    -14.63868505	      6.99636824	      0.12210966	    -36.98519599	      0.00000000	      0.00000000	     13.01217544	    -11.14979767	     -9.00555577	     14.01224094	      0.24455974	    -29.02322510	      0.00000000	      0.00000000	     -9.00397046	      0.24922512	     -7.55334077	    -16.73323016	    -42.67325458	     36.35397447	     87.22590136	     87.20092917	      0.00000000	      0.00000000	    -26.71279245	    -39.04047673	     27.31109606	     85.02159507	     87.21694738	      0.00000000	      0.00000000
      4.25000000	     -8.29052334	     -1.26154502	      1.80754594	     -0.21149006	      1.37075857	     -0.94444327	      9.17102520	     -6.96908693	    -14.86105281	      6.49503400	      0.11335973	    -36.40025285	      0.00000000	      0.00000000	     12.94270044	    -11.14731874	     -8.77603155	     13.20843751	      0.23053072	    -27.75167656	      0.00000000	      0.00000000	     -8.67796907	      0.21298546	     -7.44421898	    -16.89621579	    -42.58645697	     35.98915709	     87.20536044	     87.21594508	      0.00000000	      0.00000000	    -26.53231116	    -38.89571354	     27.39729002	     84.55411495	     87.23334221	      0.00000000	      0.00000000
      4.25500000	     -8.48352547	     -1.34612862	      1.71597268	     -0.21135867	      1.37653900	     -0.94462679	      9.26741881	     -6.89911570	    -15.33105414	      6.05226459	      0.10563194	    -35.66428008	      0.00000000	      0.00000000	     12.92762075	    -11.30407635	     -9.36017320	     12.46307041	      0.21752161	    -26.96358358	      0.00000000	      0.00000000	     -8.40934325	      0.32108523	     -7.33045085	    -16.97344817	    -42.59444979	     35.83070838	     87.20500422	     87.22068937	      0.00000000	      0.00000000	    -26.37901026	    -38.76912597	     27.45636067	     84.24467102	     87.24125573	      0.00000000	      0.00000000
